<?xml version="1.0" standalone="no"?>
<!DOCTYPE svg PUBLIC "-//W3C//DTD SVG 20010904//EN"
 "http://www.w3.org/TR/2001/REC-SVG-20010904/DTD/svg10.dtd">
<svg version="1.0" xmlns="http://www.w3.org/2000/svg"
 width="648.000000pt" height="648.000000pt" viewBox="0 0 648.000000 648.000000"
 preserveAspectRatio="xMidYMid meet">
<metadata>
Created by potrace 1.14, written by Peter Selinger 2001-2017
</metadata>
<g transform="translate(0.000000,648.000000) scale(0.100000,-0.100000)"
fill="#000000" stroke="none">
<path d="M2950 6430 c-774 -78 -1448 -397 -1996 -944 -519 -520 -813 -1116
-904 -1836 -26 -206 -29 -527 -6 -738 64 -592 296 -1154 673 -1628 112 -140
397 -426 538 -538 456 -362 975 -589 1550 -678 170 -26 522 -35 706 -18 604
55 1205 290 1678 658 391 304 682 648 905 1073 159 302 273 653 328 1009 20
128 23 183 23 465 0 344 -7 419 -62 665 -60 272 -133 481 -253 725 -269 549
-710 1026 -1240 1342 -373 223 -762 358 -1230 429 -122 18 -577 27 -710 14z
m565 -230 c543 -51 1055 -245 1484 -562 730 -541 1171 -1349 1216 -2228 7
-144 -8 -447 -31 -599 -15 -102 -60 -317 -70 -333 -3 -4 -88 -8 -190 -8 l-184
0 0 675 0 675 21 0 c16 0 19 4 14 18 -33 86 -182 543 -221 680 l-49 174 -13
-49 c-47 -173 -125 -428 -188 -610 -67 -194 -72 -213 -54 -213 20 0 20 -10 20
-675 l0 -675 -135 0 -135 0 0 330 0 329 122 3 122 3 -160 150 c-89 83 -363
339 -610 570 -246 231 -473 443 -504 471 l-55 52 -225 -211 c-124 -115 -355
-332 -514 -481 -159 -149 -357 -334 -439 -411 l-151 -140 125 -5 124 -5 3
-327 2 -328 -460 0 -460 0 0 320 0 320 28 5 c172 37 296 134 368 291 97 207
14 479 -187 613 -33 22 -84 48 -112 57 l-52 16 -1 107 c-2 170 -52 295 -167
417 -112 120 -234 179 -394 190 -251 17 -483 -120 -593 -350 -53 -111 -73
-269 -50 -386 8 -42 7 -46 -18 -65 -56 -41 -135 -121 -158 -160 -170 -291 -7
-658 321 -723 l40 -8 3 -149 c2 -83 0 -228 -3 -322 l-7 -173 -284 0 -283 0
-10 38 c-33 125 -43 171 -60 273 -76 451 -38 966 103 1399 96 294 213 518 416
800 199 276 556 606 860 795 366 227 826 380 1275 424 120 12 435 12 560 1z
m-2097 -1966 c21 -15 22 -20 22 -209 l0 -195 -25 -16 c-29 -19 -60 -11 -81 21
-13 19 -15 55 -12 205 3 166 5 183 22 196 25 18 46 18 74 -2z m4153 -540 c37
-19 59 -67 59 -129 l0 -45 -125 0 -125 0 0 51 c0 58 11 85 48 116 32 28 98 31
143 7z m-3670 -40 c17 -21 26 -233 10 -262 -16 -31 -57 -39 -81 -17 -18 16
-20 32 -20 145 0 85 4 130 12 138 17 17 63 15 79 -4z m-863 -56 c8 -8 12 -46
12 -105 0 -80 -3 -96 -20 -113 -26 -26 -42 -25 -66 1 -16 18 -19 36 -18 110 0
56 5 94 14 103 15 19 61 21 78 4z m2911 -128 l107 0 -3 -91 c-1 -51 -4 -92 -5
-93 -2 -1 -69 0 -150 2 l-147 3 -3 90 c-2 50 -1 93 2 96 3 3 25 2 49 -1 24 -3
92 -6 150 -6z m-2297 -315 c39 -19 84 -35 99 -35 l29 0 0 -257 c0 -142 -3
-288 -7 -325 l-6 -68 -138 0 -139 0 -2 148 c-1 81 -2 262 -2 403 l-1 256 48
-43 c27 -24 80 -59 119 -79z m-312 -295 l0 -390 -125 0 -125 0 2 326 3 325 50
17 c60 21 133 62 159 91 11 12 23 21 28 21 4 0 8 -175 8 -390z m2191 -17 c0
-43 2 -86 4 -95 3 -17 -10 -18 -156 -18 l-159 0 0 95 0 95 155 0 155 0 1 -77z
m1007 -20 c-2 -71 -6 -98 -15 -97 -7 1 -76 2 -153 3 l-140 1 0 95 0 95 155 0
156 0 -3 -97z m1486 -615 c-3 -13 -24 -63 -45 -113 l-38 -90 -446 -5 -447 -5
-19 -24 c-33 -40 -26 -81 24 -133 1 -1 181 -5 400 -8 l398 -5 -69 -115 -69
-115 -492 -5 -493 -5 -19 -24 c-27 -33 -24 -84 5 -118 l24 -28 421 -5 420 -5
-80 -97 -81 -98 -572 -1 c-415 0 -580 -3 -606 -12 -63 -22 -78 -90 -31 -138
l29 -29 488 0 487 0 -19 -21 c-10 -12 -62 -57 -115 -99 l-96 -78 -568 -8
c-644 -8 -605 -2 -605 -88 0 -36 5 -48 26 -65 26 -20 37 -21 437 -21 249 0
407 -4 402 -9 -34 -33 -313 -154 -485 -210 -110 -37 -289 -85 -293 -80 -2 2
-95 112 -208 244 -113 132 -261 306 -328 387 l-124 147 -41 -32 c-23 -17 -77
-61 -121 -97 -44 -36 -87 -71 -96 -78 -19 -15 -23 -7 -255 503 l-154 340 -77
60 c-137 107 -115 104 -210 24 -74 -62 -85 -69 -101 -57 -26 18 -266 217 -376
311 -50 42 -94 76 -98 75 -4 -2 -70 -60 -148 -131 l-141 -127 -144 130 c-80
71 -149 130 -154 130 -4 0 -108 -88 -231 -195 -123 -107 -226 -195 -231 -195
-14 0 -118 213 -185 383 l-23 57 2790 0 2790 0 -7 -22z"/>
<path d="M3062 5568 c-29 -4 -66 -15 -82 -23 -70 -36 -93 -120 -46 -165 30
-27 54 -28 125 -4 65 21 118 11 194 -38 58 -37 89 -76 142 -177 34 -64 44 -77
68 -79 38 -5 53 10 94 91 19 38 55 92 81 119 80 85 154 111 245 84 30 -9 69
-16 85 -16 59 0 93 85 56 138 -53 75 -235 98 -357 44 -45 -20 -121 -88 -168
-150 l-26 -33 -42 55 c-93 120 -227 176 -369 154z"/>
<path d="M1983 5270 c-35 -21 -49 -55 -39 -95 9 -35 29 -41 88 -26 27 7 60 10
74 7 40 -10 103 -75 135 -139 26 -51 33 -58 56 -55 20 2 34 16 56 53 61 105
143 159 208 136 71 -24 119 -3 119 52 0 54 -57 87 -148 87 -72 0 -128 -25
-185 -82 l-44 -44 -56 52 c-33 31 -73 57 -94 63 -61 17 -134 13 -170 -9z"/>
<path d="M4290 4763 c-27 -10 -60 -46 -60 -65 0 -11 5 -28 11 -40 10 -18 17
-19 77 -14 57 6 72 4 99 -13 32 -20 72 -69 105 -130 27 -50 51 -41 105 41 61
91 96 112 177 103 47 -5 62 -3 77 11 25 23 24 47 -5 81 -23 26 -29 28 -98 28
-82 -1 -114 -14 -173 -70 -21 -19 -40 -35 -42 -35 -2 0 -17 15 -34 34 -43 49
-104 76 -170 75 -30 0 -61 -3 -69 -6z"/>
<path d="M2666 1979 c-32 -25 -35 -81 -6 -119 l19 -25 278 -3 c301 -3 334 -1
364 29 30 30 26 92 -7 118 -26 20 -38 21 -324 21 -286 0 -298 -1 -324 -21z"/>
<path d="M3713 1985 c-47 -33 -32 -124 23 -145 37 -14 1009 -13 1036 1 25 13
50 72 41 96 -3 10 -15 28 -26 41 l-20 22 -517 0 c-442 0 -519 -2 -537 -15z"/>
<path d="M2943 1578 c-47 -23 -54 -106 -11 -144 19 -18 54 -19 769 -19 l749 0
26 26 c37 38 38 93 0 125 l-27 24 -742 -1 c-498 0 -749 -4 -764 -11z"/>
<path d="M3543 1200 c-21 -9 -53 -57 -53 -80 0 -27 33 -78 56 -89 79 -36 169
11 169 88 0 58 -28 83 -97 88 -29 1 -63 -1 -75 -7z"/>
</g>
</svg>
